HIERARCHY
ROOT Hips
{
	OFFSET 0.00000 0.00000 0.00000
	CHANNELS 6 Xposition Yposition Zposition Zrotation Yrotation Xrotation 
	JOINT LHipJoint
	{
		OFFSET 0 0 0
		CHANNELS 3 Zrotation Yrotation Xrotation
		JOINT LeftUpLeg
		{
			OFFSET 1.24777 -1.64261 0.71711
			CHANNELS 3 Zrotation Yrotation Xrotation
			JOINT LeftLeg
			{
				OFFSET 2.49329 -6.85026 0.00000
				CHANNELS 3 Zrotation Yrotation Xrotation
				JOINT LeftFoot
				{
					OFFSET 2.36770 -6.50520 0.00000
					CHANNELS 3 Zrotation Yrotation Xrotation
					JOINT LeftToeBase
					{
						OFFSET 0.14820 -0.40718 2.21395
						CHANNELS 3 Zrotation Yrotation Xrotation
						End Site
						{
							OFFSET 0.00000 -0.00000 1.13491
						}
					}
				}
			}
		}
	}
	JOINT RHipJoint
	{
		OFFSET 0 0 0
		CHANNELS 3 Zrotation Yrotation Xrotation
		JOINT RightUpLeg
		{
			OFFSET -1.18320 -1.64261 0.71711
			CHANNELS 3 Zrotation Yrotation Xrotation
			JOINT RightLeg
			{
				OFFSET -2.46559 -6.77417 0.00000
				CHANNELS 3 Zrotation Yrotation Xrotation
				JOINT RightFoot
				{
					OFFSET -2.38450 -6.55136 0.00000
					CHANNELS 3 Zrotation Yrotation Xrotation
					JOINT RightToeBase
					{
						OFFSET -0.17454 -0.47954 2.02925
						CHANNELS 3 Zrotation Yrotation Xrotation
						End Site
						{
							OFFSET -0.00000 -0.00000 1.05076
						}
					}
				}
			}
		}
	}
	JOINT LowerBack
	{
		OFFSET 0 0 0
		CHANNELS 3 Zrotation Yrotation Xrotation
		JOINT Spine
		{
			OFFSET -0.02305 1.98660 0.00319
			CHANNELS 3 Zrotation Yrotation Xrotation
			JOINT Spine1
			{
				OFFSET -0.00718 1.99033 -0.00533
				CHANNELS 3 Zrotation Yrotation Xrotation
				JOINT Neck
				{
					OFFSET 0 0 0
					CHANNELS 3 Zrotation Yrotation Xrotation
					JOINT Neck1
					{
						OFFSET 0.00095 1.61015 0.10698
						CHANNELS 3 Zrotation Yrotation Xrotation
						JOINT Head
						{
							OFFSET -0.01060 1.59924 0.01317
							CHANNELS 3 Zrotation Yrotation Xrotation
							End Site
							{
								OFFSET -0.00458 1.63304 -0.00592
							}
						}
					}
				}
				JOINT LeftShoulder
				{
					OFFSET 0 0 0
					CHANNELS 3 Zrotation Yrotation Xrotation
					JOINT LeftArm
					{
						OFFSET 3.05381 1.47088 -0.01697
						CHANNELS 3 Zrotation Yrotation Xrotation
						JOINT LeftForeArm
						{
							OFFSET 4.25106 -0.00000 0.00000
							CHANNELS 3 Zrotation Yrotation Xrotation
							JOINT LeftHand
							{
								OFFSET 3.27592 -0.00000 0.00000
								CHANNELS 3 Zrotation Yrotation Xrotation
								JOINT LeftFingerBase
								{
									OFFSET 0 0 0
									CHANNELS 3 Zrotation Yrotation Xrotation
									JOINT LeftHandIndex1
									{
										OFFSET 0.65781 -0.00000 0.00000
										CHANNELS 3 Zrotation Yrotation Xrotation
										End Site
										{
											OFFSET 0.53034 -0.00000 0.00000
										}
									}
								}
								JOINT LThumb
								{
									OFFSET 0 0 0
									CHANNELS 3 Zrotation Yrotation Xrotation
									End Site
									{
										OFFSET 0.53844 -0.00000 0.53844
									}
								}
							}
						}
					}
				}
				JOINT RightShoulder
				{
					OFFSET 0 0 0
					CHANNELS 3 Zrotation Yrotation Xrotation
					JOINT RightArm
					{
						OFFSET -2.83695 1.31619 -0.22674
						CHANNELS 3 Zrotation Yrotation Xrotation
						JOINT RightForeArm
						{
							OFFSET -4.46073 -0.00000 0.00000
							CHANNELS 3 Zrotation Yrotation Xrotation
							JOINT RightHand
							{
								OFFSET -3.44416 -0.00000 0.00000
								CHANNELS 3 Zrotation Yrotation Xrotation
								JOINT RightFingerBase
								{
									OFFSET 0 0 0
									CHANNELS 3 Zrotation Yrotation Xrotation
									JOINT RightHandIndex1
									{
										OFFSET -0.61651 -0.00000 0.00000
										CHANNELS 3 Zrotation Yrotation Xrotation
										End Site
										{
											OFFSET -0.49705 -0.00000 0.00000
										}
									}
								}
								JOINT RThumb
								{
									OFFSET 0 0 0
									CHANNELS 3 Zrotation Yrotation Xrotation
									End Site
									{
										OFFSET -0.50464 -0.00000 0.50464
									}
								}
							}
						}
					}
				}
			}
		}
	}
}
MOTION
Frames: 9
Frame Time: 0.0208333
0.00 0.00 0.00 -177.0460 62.9265 -171.5220 0.0000 0.0000 0.0000 -21.4899 -17.4279 -24.4886 11.4590 18.1525 64.2633 2.4210 -4.2588 -28.4481 0.0709 -1.7179 -4.7268 0.0000 0.0000 0.0000 -9.0495 17.8439 -49.6922 -5.2571 -13.6676 41.9219 -0.5456 4.1710 16.1003 -2.3845 9.6248 -27.7700 1.3648 0.6421 10.5222 5.7433 1.5071 3.0694 5.0343 0.8768 -2.8231 -6.1146 -15.0643 -7.0009 4.1112 -20.0443 12.8115 0.6085 -9.7317 6.0495 -0.0000 -0.0000 0.0000 -89.8879 7.2034 69.6169 40.3333 -48.2661 -18.6876 -0.0000 0.0000 -13.9597 8.3454 -5.2705 -0.7720 -7.1250 0.0000 -0.0000 -13.6138 24.6459 6.8837 -0.0000 -0.0000 0.0000 67.1052 37.9040 36.9608 -152.7578 38.4092 -110.3508 0.0000 -0.0000 -47.3921 -0.8604 -13.6900 0.2037 7.1250 -0.0000 -0.0000 23.6549 -42.3596 1.6422
0.00 0.00 0.00 -181.8280 51.5804 -178.8150 0.0000 0.0000 0.0000 -18.6107 -16.2380 -27.8763 16.9557 19.7763 81.0670 3.4708 -11.4369 -33.7126 0.2525 -3.2330 -8.9280 0.0000 0.0000 0.0000 -11.8458 12.5035 -44.9898 -7.3728 -15.6380 50.2706 0.1251 6.2602 2.4254 -5.3551 13.7729 -42.3351 1.3771 1.4048 12.8353 7.5278 2.9487 6.1897 6.7492 1.7280 -1.0157 -6.9547 -16.7172 -4.2631 6.6683 -22.5384 13.2354 1.3706 -10.8103 6.2641 -0.0000 -0.0000 0.0000 -90.7808 9.6245 59.5470 41.3349 -48.8412 -19.4384 -0.0000 0.0000 -23.1480 22.0271 -5.4862 -2.2151 -7.1250 0.0000 -0.0000 -3.4719 24.0659 1.7574 -0.0000 -0.0000 0.0000 86.6108 41.8043 38.6180 -156.3639 34.7771 -112.5020 0.0000 -0.0000 -51.7393 -33.4561 -21.4947 13.6106 7.1250 -0.0000 -0.0000 -5.1394 -55.1740 1.2863
0.00 0.00 0.00 -178.4740 67.6568 -171.7870 0.0000 0.0000 0.0000 -16.7087 -4.4741 -20.0047 7.7569 15.9375 51.6821 3.6285 -9.8600 -34.5389 0.0230 -0.9782 -2.6888 0.0000 0.0000 0.0000 2.0800 7.0312 -47.7277 -3.4190 -11.3442 33.4498 -0.4249 5.1387 15.2762 -3.8350 11.9376 -35.5115 -1.4878 -0.7529 7.8548 4.1334 -0.8633 3.0014 5.2034 -0.3873 -1.2067 -4.4121 -13.9710 -4.2024 5.5497 -18.8875 9.4185 1.2703 -9.1763 4.4561 -0.0000 0.0000 0.0000 -87.3765 13.7828 45.3026 35.4735 -45.1473 -15.1481 -0.0000 0.0000 -20.7652 22.2139 -5.5431 -2.2590 -7.1250 0.0000 -0.0000 -3.3330 23.9967 1.6922 -0.0000 0.0000 0.0000 79.6467 54.3266 43.3790 -152.6640 38.4977 -110.2925 0.0000 -0.0000 -43.9614 -28.4208 -19.2145 10.0985 7.1250 -0.0000 -0.0000 -0.1562 -51.5970 0.0254
0.00 0.00 0.00 -173.3500 76.6361 -166.3890 0.0000 0.0000 0.0000 -18.8870 -9.3169 -14.4679 5.3606 13.7787 42.3583 3.2038 -0.0760 -33.9490 0.1921 2.8223 7.7845 0.0000 0.0000 0.0000 6.1774 3.2001 -53.6687 -6.6896 -15.0648 47.6904 -0.3460 0.6597 11.3692 -2.3799 9.6161 -27.7423 -2.3334 -0.6332 6.6370 3.3758 -0.8382 2.3576 4.8715 -0.3968 -1.1991 -3.9647 -13.4564 -5.4304 5.0365 -18.2292 10.6034 0.9839 -8.8108 4.8999 -0.0000 0.0000 0.0000 -80.6590 8.0213 46.7099 35.6475 -45.2690 -15.2715 -0.0000 0.0000 -23.5346 21.3710 -3.4524 -1.3499 -7.1250 0.0000 -0.0000 -3.9845 26.2697 1.8136 -0.0000 0.0000 0.0000 76.7815 57.1246 39.6858 -152.4963 38.6553 -110.1879 0.0000 -0.0000 -46.1452 -27.4027 -19.1789 9.6652 7.1250 -0.0000 -0.0000 0.8742 -51.3723 -0.1372
0.00 0.00 0.00 -7.7376 52.1564 0.1394 0.0000 0.0000 0.0000 -22.2420 17.3246 -25.1142 4.4735 12.7651 38.4955 2.8272 13.7974 -38.8966 1.0750 6.5906 18.5079 0.0000 0.0000 0.0000 19.5999 -1.6019 -55.4550 -10.8575 -17.8646 62.3180 1.9799 25.3608 18.9072 -0.0383 1.2632 -3.4734 -4.7919 -3.3693 3.6627 1.0948 -4.6706 0.0760 4.0185 -2.2964 -1.4976 -0.4315 -9.2900 -8.4600 4.2534 -13.2244 15.0405 0.3465 -6.0909 6.2799 -0.0000 -0.0000 0.0000 -77.7817 -13.0047 68.0326 37.2573 -46.3583 -16.4260 -0.0000 0.0000 -20.3356 10.4849 0.1883 0.0348 -7.1250 0.0000 -0.0000 -12.6221 30.0412 4.7106 -0.0000 -0.0000 0.0000 65.7674 50.7394 20.8790 -136.7074 49.9041 -99.0757 0.0000 -0.0000 -58.9548 -29.2386 -20.0663 10.8718 7.1250 -0.0000 -0.0000 -0.8389 -52.6933 0.1588
0.00 0.00 0.00 -4.9910 37.1204 4.5280 0.0000 0.0000 0.0000 -24.3835 17.0340 -22.8455 3.5009 11.4648 33.8640 3.5060 13.8699 -42.0773 2.6753 10.1498 29.4632 0.0000 0.0000 0.0000 14.1748 -2.8155 -53.3927 -13.1805 -18.8464 69.6851 0.8416 18.2741 16.3371 -0.9998 6.3630 -17.8414 -3.1567 -3.8160 1.6794 1.8942 -5.1405 -1.0727 3.8486 -2.5235 -1.5911 0.7800 -7.5452 -9.9570 2.0698 -10.7330 15.3257 -0.3689 -4.9697 6.3701 0.0000 -0.0000 0.0000 -82.0102 -14.9601 75.9158 44.1880 -50.3644 -21.6116 -0.0000 0.0000 -20.4406 11.7204 -1.7948 -0.3723 -7.1250 0.0000 -0.0000 -11.4425 28.0776 4.7986 0.0000 -0.0000 0.0000 61.2634 42.3156 16.7925 -119.3387 56.4836 -85.1081 0.0000 -0.0000 -57.8080 -33.4647 -23.4484 14.7366 7.1250 -0.0000 -0.0000 -4.8490 -57.3854 1.4732
0.00 0.00 0.00 -4.4674 26.7278 9.4772 0.0000 0.0000 0.0000 -21.4119 10.7969 -17.8319 2.8764 10.4923 30.5860 3.3155 0.9515 -34.8639 2.1082 9.0879 26.0708 0.0000 0.0000 0.0000 12.4142 -3.2478 -48.8931 -10.5051 -17.6843 61.1638 -0.0972 -1.4260 5.5633 -0.0399 1.2898 -3.5465 -2.8754 -3.2963 -1.1688 2.3996 -4.3661 -2.5539 4.0739 -2.1136 -1.5701 0.9762 -7.5483 -10.3221 3.3806 -10.9212 13.7141 0.0108 -4.9907 5.9919 -0.0000 -0.0000 0.0000 -82.8964 -15.0566 87.1202 55.1376 -54.8685 -30.3285 -0.0000 0.0000 -21.1023 9.7719 -0.8266 -0.1424 -7.1250 0.0000 -0.0000 -13.0423 29.0253 5.1994 -0.0000 -0.0000 0.0000 60.4801 21.7413 22.2375 -100.4379 59.5843 -69.0268 0.0000 -0.0000 -44.2415 -33.8685 -25.7128 16.2353 7.1250 -0.0000 -0.0000 -4.8886 -60.0247 1.7948
0.00 0.00 0.00 -2.2824 18.5544 14.6087 0.0000 0.0000 0.0000 -24.6304 12.7861 -21.5001 2.9708 10.6476 31.1003 3.8036 -1.6991 -36.6006 1.9084 8.6727 24.7766 0.0000 0.0000 0.0000 15.0133 -7.8177 -54.1571 -10.0119 -17.4166 59.5282 0.0801 -5.3716 -4.0181 -0.2113 -2.9597 8.1666 -4.5264 -3.3439 -1.0358 1.3233 -4.4579 -2.7448 3.9010 -2.1315 -1.7984 0.2179 -7.9444 -10.0623 6.7164 -11.3661 7.4742 1.2456 -5.2309 4.2621 0.0000 0.0000 0.0000 -81.4040 -14.7005 96.3490 61.8137 -56.7742 -35.8543 -0.0000 0.0000 -23.3574 4.8786 0.3858 0.0329 -7.1250 0.0000 -0.0000 -16.9623 30.1124 6.4181 0.0000 0.0000 0.0000 68.6737 2.7062 28.1730 -78.6572 59.5082 -50.1931 0.0000 -0.0000 -27.2705 -30.9454 -30.3337 16.8464 7.1250 -0.0000 -0.0000 0.3415 -64.2838 -0.1595
0.00 0.00 0.00 2.8663 -3.4883 17.2559 0.0000 0.0000 0.0000 -32.1979 19.4498 -20.8669 4.2837 12.5287 37.6289 4.3149 5.1514 -41.2561 0.1300 2.3241 6.4024 0.0000 0.0000 0.0000 28.4783 -11.9092 -63.9600 -13.0251 -18.7912 69.2035 -0.7066 -7.3304 -20.1962 -0.0743 -1.7587 4.8392 -5.7616 -5.5888 -0.3183 -0.3286 -7.4894 -1.5807 2.8371 -3.6921 -0.7650 -0.5640 -5.7411 -10.1755 5.2261 -7.8201 0.9161 1.3656 -3.7498 2.3008 0.0000 -0.0000 0.0000 -86.1390 -20.5226 104.6276 65.5509 -57.6163 -38.9959 -0.0000 0.0000 -25.7384 4.4844 3.0575 0.2397 -7.1250 0.0000 -0.0000 -17.7593 32.6577 5.6035 0.0000 -0.0000 0.0000 83.5989 -20.3688 5.7990 -38.2267 46.9835 -17.1311 0.0000 -0.0000 -16.1113 -39.6096 -41.2861 28.6361 7.1250 -0.0000 -0.0000 -7.1585 -78.6390 5.6126
